<svg xmlns="http://www.w3.org/2000/svg" width="23.599" height="23.599" viewBox="0 0 23.599 23.599">
  <path id="Icon_awesome-check-circle" data-name="Icon awesome-check-circle" d="M24.162,12.362a11.8,11.8,0,1,1-11.8-11.8A11.8,11.8,0,0,1,24.162,12.362ZM11,18.61l8.755-8.755a.761.761,0,0,0,0-1.077L18.675,7.7a.761.761,0,0,0-1.077,0l-7.14,7.14L7.126,11.509a.761.761,0,0,0-1.077,0L4.972,12.585a.761.761,0,0,0,0,1.077L9.921,18.61a.761.761,0,0,0,1.077,0Z" transform="translate(-0.563 -0.563)" fill="#4acfac"/>
</svg>
