<svg xmlns="http://www.w3.org/2000/svg" width="22.502" height="17.999" viewBox="0 0 22.502 17.999">
  <path id="Icon_awesome-code" data-name="Icon awesome-code" d="M9.8,17.984,7.66,17.361a.423.423,0,0,1-.288-.524L12.17.307a.423.423,0,0,1,.524-.288l2.145.622a.423.423,0,0,1,.288.524l-4.8,16.53a.421.421,0,0,1-.524.288ZM5.8,14.039l1.529-1.631a.422.422,0,0,0-.028-.6L4.112,9,7.3,6.2a.419.419,0,0,0,.028-.6L5.8,3.963a.422.422,0,0,0-.6-.018L.133,8.692a.419.419,0,0,0,0,.615L5.2,14.057a.419.419,0,0,0,.6-.018Zm11.5.021,5.066-4.75a.419.419,0,0,0,0-.615L17.3,3.942a.426.426,0,0,0-.6.018L15.173,5.591a.422.422,0,0,0,.028.6L18.386,9,15.2,11.8a.419.419,0,0,0-.028.6L16.7,14.039a.422.422,0,0,0,.6.021Z" transform="translate(0.002 -0.003)" fill="#fff"/>
</svg>
