<svg id="Group_1" data-name="Group 1" xmlns="http://www.w3.org/2000/svg" width="46.674" height="49.935" viewBox="0 0 46.674 49.935">
  <path id="Path_1" data-name="Path 1" d="M44.274,5.472A3.51,3.51,0,0,0,41.915.8,24.667,24.667,0,0,0,35.65,0,24.985,24.985,0,0,0,11.6,18.218a25.237,25.237,0,0,1,8.63-8.972A22.775,22.775,0,0,1,39.241,7.325c.222.086.445.16.673.222a1.238,1.238,0,0,1,.137.04,3.517,3.517,0,0,0,4.224-2.115Z" transform="translate(-10.939 0)" fill="#4acfac"/>
  <path id="Path_2" data-name="Path 2" d="M8.735,149.174a18.7,18.7,0,0,1-1.967-9.947A17.963,17.963,0,0,1,24.7,121.676c.291,0,.581.006.866.023-5.86-.559-13.692.73-19.119,5.712a24.467,24.467,0,0,0-2.394,2.531A18.3,18.3,0,0,0,.806,146.854a25.005,25.005,0,0,0,28.878,17.232C17.7,162.587,12,155.907,8.735,149.174Z" transform="translate(0.003 -114.647)" fill="#4acfac"/>
  <path id="Path_3" data-name="Path 3" d="M171.026,601.854a18.389,18.389,0,0,0,8,.433,13.238,13.238,0,0,0,4.669-1.744,24.977,24.977,0,0,0,3.637-2.673,9.785,9.785,0,0,1-3.472-1.807,6.779,6.779,0,0,1-1.961-2.816,16.777,16.777,0,0,1-11.583,3.859c-8.271-.616-12.341-4.292-15.414-9.406C158.126,594.626,165.092,600.2,171.026,601.854Z" transform="translate(-146.07 -554.199)" fill="#4acfac"/>
  <path id="Path_4" data-name="Path 4" d="M660.532,509.136a11,11,0,0,1-4.184,4.372c-2.708,1.385-3.54,2.611-3.124,4.463a4.461,4.461,0,0,0,5.8,2.656c2.428-1.157,3.329-5.182,3.511-7.308a24.26,24.26,0,0,0-.6-5.621s-.462,3.283-2.731,4.691A8.472,8.472,0,0,0,660.532,509.136Z" transform="translate(-615.892 -478.759)" fill="#4acfac"/>
</svg>
