<svg xmlns="http://www.w3.org/2000/svg" width="18.161" height="11.825" viewBox="0 0 18.161 11.825">
  <path id="_3586360_email_envelope_mail_send_icon" data-name="3586360_email_envelope_mail_send_icon" d="M25.109,32.744a.313.313,0,0,0,.017-.1V21.455a.311.311,0,0,0-.017-.1s0-.008,0-.013a.314.314,0,0,0-.058-.1l0-.006,0,0a.317.317,0,0,0-.093-.068l-.008,0a.312.312,0,0,0-.108-.026H7.26a.315.315,0,0,0-.109.026l-.006,0a.312.312,0,0,0-.094.069l0,0s0,0,0,.006a.316.316,0,0,0-.058.1s0,.008,0,.013a.311.311,0,0,0-.017.1V32.648a.313.313,0,0,0,.017.1l0,.012a.316.316,0,0,0,.059.1l0,.005,0,0a.32.32,0,0,0,.033.029l.015.013a.292.292,0,0,0,.044.025l.011.006a.316.316,0,0,0,.124.025H24.809a.313.313,0,0,0,.124-.025l.017-.009a.322.322,0,0,0,.038-.021l.018-.015a.289.289,0,0,0,.031-.027l.005,0,0-.006a.316.316,0,0,0,.058-.1A.116.116,0,0,0,25.109,32.744ZM7.6,22.172l5.319,4.858L7.6,31.927Zm10.9,4.62a.3.3,0,0,0-.063.047c-.007.008-.009.017-.015.025l-2.374,2.169-7.95-7.262h15.9Zm-5.114.666,2.448,2.236a.316.316,0,0,0,.426,0l2.418-2.208,5.318,4.846H8.09Zm5.76-.4,5.349-4.886v9.761Z" transform="translate(-6.964 -21.139)" fill="#1c2538"/>
</svg>
