<svg xmlns="http://www.w3.org/2000/svg" width="12.61" height="20.175" viewBox="0 0 12.61 20.175">
  <path id="Icon_awesome-mobile-alt" data-name="Icon awesome-mobile-alt" d="M10.718,0H1.891A1.892,1.892,0,0,0,0,1.891V18.284a1.892,1.892,0,0,0,1.891,1.891h8.827a1.892,1.892,0,0,0,1.891-1.891V1.891A1.892,1.892,0,0,0,10.718,0ZM6.3,18.914a1.261,1.261,0,1,1,1.261-1.261A1.26,1.26,0,0,1,6.3,18.914Zm4.413-4.256a.474.474,0,0,1-.473.473H2.364a.474.474,0,0,1-.473-.473V2.364a.474.474,0,0,1,.473-.473h7.881a.474.474,0,0,1,.473.473Z" fill="#1c2538"/>
</svg>
