<svg xmlns="http://www.w3.org/2000/svg" width="34.94" height="34.94" viewBox="0 0 34.94 34.94">
  <path id="Icon_metro-flow-tree" data-name="Icon metro-flow-tree" d="M35.834,28.9V24.584a6.5,6.5,0,0,0-6.5-6.5H25.612a2.789,2.789,0,0,1-2.788-2.788V10.972a4.46,4.46,0,1,0-3.717,0v4.319a2.789,2.789,0,0,1-2.788,2.788H12.6a6.5,6.5,0,0,0-6.5,6.5V28.9a4.46,4.46,0,1,0,3.717,0V24.584A2.789,2.789,0,0,1,12.6,21.8H16.32a6.437,6.437,0,0,0,2.788-.65V28.9a4.46,4.46,0,1,0,3.717,0V21.146a6.437,6.437,0,0,0,2.788.65h3.717a2.789,2.789,0,0,1,2.788,2.788V28.9a4.46,4.46,0,1,0,3.717,0ZM20.966,4.354a2.574,2.574,0,1,1-2.572,2.574,2.572,2.572,0,0,1,2.572-2.574ZM7.957,35.521a2.574,2.574,0,1,1,2.572-2.574,2.574,2.574,0,0,1-2.572,2.574Zm13.009,0a2.574,2.574,0,1,1,2.572-2.574,2.574,2.574,0,0,1-2.572,2.574Zm13.009,0a2.574,2.574,0,1,1,2.572-2.574,2.574,2.574,0,0,1-2.572,2.574Z" transform="translate(-3.496 -2.468)" fill="#1c2538"/>
</svg>
