<svg xmlns="http://www.w3.org/2000/svg" width="40.882" height="40.882" viewBox="0 0 40.882 40.882">
  <path id="Icon_awesome-pen-fancy" data-name="Icon awesome-pen-fancy" d="M6.322,22.592a2.555,2.555,0,0,0-1.616,1.616L0,38.327l.374.374,7.417-7.417a2.458,2.458,0,0,1-.125-.623,2.555,2.555,0,1,1,2.555,2.555,2.458,2.458,0,0,1-.623-.125L2.181,40.508l.374.374,14.119-4.706a2.554,2.554,0,0,0,1.616-1.616l2.641-6.713-7.9-7.9ZM29.484,2.261,14.863,18.19,22.676,26,38.6,11.382C45.385,5.388,35.431-4.467,29.484,2.261Z" transform="translate(0 0)" fill="#1c2538"/>
</svg>
